<?xml version="1.0" standalone="no"?>
<!DOCTYPE svg PUBLIC "-//W3C//DTD SVG 20010904//EN"
 "http://www.w3.org/TR/2001/REC-SVG-20010904/DTD/svg10.dtd">
<svg version="1.0" xmlns="http://www.w3.org/2000/svg"
 width="700.000000pt" height="700.000000pt" viewBox="0 0 700.000000 700.000000"
 preserveAspectRatio="xMidYMid meet">
<metadata>
Created by potrace 1.14, written by Peter Selinger 2001-2017
</metadata>
<g transform="translate(0.000000,700.000000) scale(0.100000,-0.100000)"
fill="#000000" stroke="none">
<path d="M5075 6696 c-343 -68 -585 -339 -621 -697 l-6 -66 -113 -6 c-195 -9
-365 -82 -506 -214 -165 -156 -249 -355 -249 -590 0 -98 28 -252 52 -280 15
-18 9 -17 -57 12 -125 56 -198 70 -365 70 -120 0 -170 -4 -223 -19 -268 -72
-481 -244 -598 -484 -44 -90 -84 -236 -94 -344 l-6 -67 -127 0 c-135 1 -245
-17 -336 -53 -377 -148 -609 -481 -608 -873 0 -198 48 -357 152 -514 62 -93
185 -217 261 -265 l47 -30 -20 -55 c-22 -67 -48 -207 -48 -266 l0 -42 -132 -6
c-215 -11 -361 -55 -524 -162 -206 -134 -354 -345 -416 -592 -20 -80 -23 -113
-23 -348 l0 -260 27 -57 c35 -76 98 -142 167 -175 l56 -28 1367 -3 c1364 -2
1367 -2 1422 19 74 27 157 104 193 177 l28 57 0 275 c0 269 -1 277 -28 373
-15 55 -27 100 -27 102 0 3 188 5 418 7 413 3 417 3 463 26 75 37 125 87 161
160 l33 66 3 231 c3 203 1 243 -18 335 -49 245 -174 436 -389 600 l-33 25 584
3 c321 2 599 8 619 13 51 13 122 63 154 109 49 71 54 100 55 317 0 224 -11
304 -58 426 l-29 76 316 3 c297 3 319 4 362 24 63 29 110 74 139 131 24 46 25
58 28 247 3 217 -8 307 -53 418 -77 190 -244 360 -427 435 -103 42 -157 54
-278 60 -110 5 -119 4 -202 -25 -114 -41 -230 -62 -337 -62 l-88 0 13 63 c8
34 14 99 14 145 l0 82 63 0 c123 0 291 57 411 139 59 41 175 167 215 234 18
31 47 96 64 144 30 84 32 95 32 238 -1 138 -3 156 -28 230 -42 120 -99 209
-196 305 -97 96 -195 154 -321 190 -97 27 -244 34 -335 16z m-2009 -3877 c3
-6 20 -20 38 -31 l31 -20 -49 6 c-27 3 -51 7 -52 9 -2 2 -1 13 3 25 6 24 18
28 29 11z"/>
</g>
</svg>
